<svg xmlns="http://www.w3.org/2000/svg" xmlns:xlink="http://www.w3.org/1999/xlink" viewBox="0 0 57.44 49.24"><defs><style>.cls-1{fill:url(#linear-gradient);}.cls-2{fill:url(#linear-gradient-2);}.cls-3{fill:url(#linear-gradient-3);}.cls-4{fill:url(#linear-gradient-4);}.cls-5{fill:url(#linear-gradient-5);}.cls-6{fill:url(#linear-gradient-6);}.cls-7{fill:url(#linear-gradient-7);}.cls-8{fill:url(#linear-gradient-8);}</style><linearGradient id="linear-gradient" x1="-10.4" y1="11.7" x2="44.3" y2="63.49" gradientUnits="userSpaceOnUse"><stop offset="0" stop-color="#3e358f"/><stop offset="1" stop-color="#cc4999"/></linearGradient><linearGradient id="linear-gradient-2" x1="-15.63" y1="17.23" x2="39.07" y2="69.01" xlink:href="#linear-gradient"/><linearGradient id="linear-gradient-3" x1="-8.32" y1="9.51" x2="46.38" y2="61.29" xlink:href="#linear-gradient"/><linearGradient id="linear-gradient-4" x1="-2.43" y1="3.29" x2="52.27" y2="55.07" xlink:href="#linear-gradient"/><linearGradient id="linear-gradient-5" x1="5.86" y1="-5.47" x2="60.56" y2="46.32" xlink:href="#linear-gradient"/><linearGradient id="linear-gradient-6" x1="1.32" y1="-0.68" x2="56.02" y2="51.11" xlink:href="#linear-gradient"/><linearGradient id="linear-gradient-7" x1="19.46" y1="-19.84" x2="74.16" y2="31.95" xlink:href="#linear-gradient"/><linearGradient id="linear-gradient-8" x1="19.46" y1="-19.84" x2="74.16" y2="31.94" xlink:href="#linear-gradient"/></defs><title>Business Advisery</title><g id="Layer_2" data-name="Layer 2"><g id="Layer_1-2" data-name="Layer 1"><rect class="cls-1" y="48.23" width="57.44" height="1.01"/><polygon class="cls-2" points="14.55 48.73 13.53 48.73 13.53 35.02 6.22 35.02 6.22 48.73 5.21 48.73 5.21 34.01 14.55 34.01 14.55 48.73"/><polygon class="cls-3" points="27.43 48.73 26.42 48.73 26.42 30.03 18.98 30.03 18.98 48.73 17.97 48.73 17.97 29.02 27.43 29.02 27.43 48.73"/><polygon class="cls-4" points="40.32 48.73 39.3 48.73 39.3 31.19 32.23 31.19 32.23 48.73 31.22 48.73 31.22 30.18 40.32 30.18 40.32 48.73"/><polygon class="cls-5" points="53.32 48.73 52.31 48.73 52.31 22.38 45 22.38 45 48.73 43.98 48.73 43.98 21.36 53.32 21.36 53.32 48.73"/><path class="cls-6" d="M10.18,29.93l-.61-.81,12.69-9.41,6.29,2.61c3.27,1.36,4.89,2,5.67,2.43.75-.75,3-2.54,9.51-7.51l.61.81c-3.37,2.56-8.8,6.76-9.5,7.46l-.16.43-.77-.28c-1.39-.59-8.38-3.5-11.5-4.79Z"/><path class="cls-7" d="M48.65,15.6a7.8,7.8,0,1,1,7.8-7.8A7.81,7.81,0,0,1,48.65,15.6ZM48.65,1A6.79,6.79,0,1,0,55.44,7.8,6.79,6.79,0,0,0,48.65,1Z"/><path class="cls-8" d="M48.24,12.79V11.56A3.55,3.55,0,0,1,46.38,11l.29-.82a3.26,3.26,0,0,0,1.75.52c.86,0,1.45-.49,1.45-1.19s-.48-1.08-1.38-1.44c-1.23-.49-2-1-2-2.1a2,2,0,0,1,1.83-2V2.81h.76V4a3.29,3.29,0,0,1,1.58.43l-.31.8a2.87,2.87,0,0,0-1.53-.41c-.93,0-1.29.55-1.29,1S48,6.8,49,7.23c1.25.52,1.88,1.15,1.88,2.23A2.1,2.1,0,0,1,49,11.52v1.27Z"/></g></g></svg>