<svg xmlns="http://www.w3.org/2000/svg" xmlns:xlink="http://www.w3.org/1999/xlink" viewBox="0 0 52.26 49.74"><defs><style>.cls-1{fill:url(#linear-gradient);}.cls-2{fill:url(#linear-gradient-2);}.cls-3{fill:url(#linear-gradient-3);}.cls-4{fill:url(#linear-gradient-4);}.cls-5{fill:url(#linear-gradient-5);}.cls-6{fill:url(#linear-gradient-6);}.cls-7{fill:url(#linear-gradient-7);}.cls-8{fill:url(#linear-gradient-8);}.cls-9{fill:url(#linear-gradient-9);}.cls-10,.cls-11,.cls-12,.cls-13,.cls-17,.cls-18,.cls-19,.cls-20,.cls-21{fill:none;stroke-miterlimit:10;}.cls-10{stroke:url(#linear-gradient-10);}.cls-11{stroke:url(#linear-gradient-11);}.cls-12{stroke:url(#linear-gradient-12);}.cls-13{stroke:url(#linear-gradient-13);}.cls-14{fill:url(#linear-gradient-14);}.cls-15{fill:url(#linear-gradient-15);}.cls-16{fill:url(#linear-gradient-17);}.cls-17{stroke:url(#linear-gradient-19);}.cls-18{stroke:url(#linear-gradient-20);}.cls-19{stroke:url(#linear-gradient-21);}.cls-20{stroke:url(#linear-gradient-22);}.cls-21{stroke:url(#linear-gradient-23);}</style><linearGradient id="linear-gradient" x1="-2.64" y1="-0.45" x2="58.85" y2="61.05" gradientUnits="userSpaceOnUse"><stop offset="0" stop-color="#3e358f"/><stop offset="1" stop-color="#cc4999"/></linearGradient><linearGradient id="linear-gradient-2" x1="-0.2" y1="-2.89" x2="61.29" y2="58.61" xlink:href="#linear-gradient"/><linearGradient id="linear-gradient-3" x1="-2.04" y1="-1.05" x2="59.45" y2="60.45" xlink:href="#linear-gradient"/><linearGradient id="linear-gradient-4" x1="-3.62" y1="0.53" x2="57.87" y2="62.02" xlink:href="#linear-gradient"/><linearGradient id="linear-gradient-5" x1="-5.2" y1="2.11" x2="56.3" y2="63.6" xlink:href="#linear-gradient"/><linearGradient id="linear-gradient-6" x1="-4.59" y1="1.5" x2="56.9" y2="62.99" xlink:href="#linear-gradient"/><linearGradient id="linear-gradient-7" x1="-6.43" y1="3.34" x2="55.07" y2="64.83" xlink:href="#linear-gradient"/><linearGradient id="linear-gradient-8" x1="-8" y1="4.92" x2="53.49" y2="66.41" xlink:href="#linear-gradient"/><linearGradient id="linear-gradient-9" x1="-9.58" y1="6.49" x2="51.91" y2="67.99" xlink:href="#linear-gradient"/><linearGradient id="linear-gradient-10" x1="1.85" y1="28.69" x2="9.39" y2="36.23" xlink:href="#linear-gradient"/><linearGradient id="linear-gradient-11" x1="8.84" y1="29.32" x2="15.92" y2="36.39" xlink:href="#linear-gradient"/><linearGradient id="linear-gradient-12" x1="13.98" y1="24.21" x2="24.76" y2="34.99" xlink:href="#linear-gradient"/><linearGradient id="linear-gradient-13" x1="22.12" y1="26.88" x2="29.44" y2="34.19" xlink:href="#linear-gradient"/><linearGradient id="linear-gradient-14" x1="6.62" y1="-9.71" x2="68.12" y2="51.78" xlink:href="#linear-gradient"/><linearGradient id="linear-gradient-15" x1="8.09" y1="-11.18" x2="69.58" y2="50.31" xlink:href="#linear-gradient"/><linearGradient id="linear-gradient-17" x1="15.88" y1="-18.96" x2="77.37" y2="42.53" xlink:href="#linear-gradient"/><linearGradient id="linear-gradient-19" x1="33.71" y1="38.17" x2="44.91" y2="49.37" xlink:href="#linear-gradient"/><linearGradient id="linear-gradient-20" x1="38.36" y1="25.32" x2="53.37" y2="40.33" xlink:href="#linear-gradient"/><linearGradient id="linear-gradient-21" x1="29.15" y1="29.24" x2="36.31" y2="36.4" xlink:href="#linear-gradient"/><linearGradient id="linear-gradient-22" x1="33.7" y1="31.45" x2="44.89" y2="42.64" xlink:href="#linear-gradient"/><linearGradient id="linear-gradient-23" x1="36.25" y1="33.99" x2="42.35" y2="40.09" xlink:href="#linear-gradient"/></defs><title>Digital Asset</title><g id="Layer_2" data-name="Layer 2"><g id="Layer_1-2" data-name="Layer 1"><path class="cls-1" d="M26.08,38.49c.05.37.1.73.18,1.09H0V5.73H40.92A4.92,4.92,0,0,0,41,6.82H1.09V38.49Z"/><rect class="cls-2" x="6.99" y="9.47" width="11.43" height="1.09"/><rect class="cls-3" x="6.99" y="13.15" width="11.43" height="1.09"/><rect class="cls-4" x="6.99" y="16.3" width="11.43" height="1.09"/><rect class="cls-5" x="6.99" y="19.46" width="11.43" height="1.09"/><rect class="cls-6" x="3.14" y="9.47" width="1.58" height="1.09"/><rect class="cls-7" x="3.14" y="13.15" width="1.58" height="1.09"/><rect class="cls-8" x="3.14" y="16.3" width="1.58" height="1.09"/><rect class="cls-9" x="3.14" y="19.46" width="1.58" height="1.09"/><rect class="cls-10" x="3.15" y="28.39" width="4.94" height="8.14"/><rect class="cls-11" x="9.94" y="29.21" width="4.87" height="7.28"/><rect class="cls-12" x="16.71" y="22.48" width="5.32" height="14.23"/><path class="cls-13" d="M29.1,26v2.51c-.23.27-.43.54-.63.82s-.43.64-.63,1a13.3,13.3,0,0,0-1.73,5.05,6.2,6.2,0,0,0-.06.62c0,.21,0,.42,0,.64H24V26Z"/><path class="cls-14" d="M43.14,10.16a3.94,3.94,0,0,1-.45-.38,3.24,3.24,0,0,1-.4-.43l-4.74,4.74a2.86,2.86,0,0,0-1.89-.7,2.82,2.82,0,0,0-1.66.54l-1-1.06a2.59,2.59,0,0,0,.21-1,2.62,2.62,0,1,0-5.24,0,2.49,2.49,0,0,0,.34,1.27l-3.71,3.62A2.88,2.88,0,0,0,23,16.3a2.91,2.91,0,1,0,2.91,2.91,2.85,2.85,0,0,0-.46-1.55l3.69-3.59a2.59,2.59,0,0,0,3.12-.22l.94,1a2.87,2.87,0,1,0,5.34,1.45A2.94,2.94,0,0,0,38.26,15ZM23,21a1.81,1.81,0,1,1,1.81-1.8A1.81,1.81,0,0,1,23,21Zm7.55-7.62a1.52,1.52,0,1,1,1.52-1.52A1.53,1.53,0,0,1,30.54,13.39ZM32.27,13h0l0,0A0,0,0,0,0,32.27,13Zm3.39,5a1.77,1.77,0,1,1,1.78-1.77A1.78,1.78,0,0,1,35.66,18Z"/><path class="cls-15" d="M32.26,13h0a0,0,0,0,1,0,0Z"/><path class="cls-15" d="M32.26,13h0a0,0,0,0,1,0,0Z"/><path class="cls-16" d="M46.59,0a5.67,5.67,0,0,0-5.67,5.67v.06A4.92,4.92,0,0,0,41,6.82a5.59,5.59,0,0,0,1.25,2.53,3.24,3.24,0,0,0,.4.43,3.94,3.94,0,0,0,.45.38,5.54,5.54,0,0,0,3.45,1.18,1.72,1.72,0,0,0,.32,0V26.16A12.75,12.75,0,0,1,48,27V11.16A5.67,5.67,0,0,0,46.59,0ZM48,10a4,4,0,0,1-1.09.22h-.32a4.56,4.56,0,0,1-4.42-3.43A3.94,3.94,0,0,1,42,5.73V5.67A4.58,4.58,0,1,1,48,10Z"/><path class="cls-15" d="M32.28,13a0,0,0,0,0,0,0h0Z"/><path class="cls-17" d="M49.57,43.6a12.18,12.18,0,0,1-20.54,0h0l3-2.18a8.52,8.52,0,0,0,14.6,0Z"/><path class="cls-18" d="M51.5,37a12.21,12.21,0,0,1-1.37,5.61l-3-2.21a6.36,6.36,0,0,0,.33-.86,8.5,8.5,0,0,0-7.57-11v-3.7a12,12,0,0,1,7.06,2.67,10,10,0,0,1,1.09,1A12.13,12.13,0,0,1,51.5,37Z"/><path class="cls-19" d="M38.75,24.86v3.7a8.5,8.5,0,0,0-8,8.48,7.67,7.67,0,0,0,.13,1.45,7.84,7.84,0,0,0,.25,1.09,8,8,0,0,0,.33.86l-3,2.21a11.46,11.46,0,0,1-1.1-3.07,9.91,9.91,0,0,1-.18-1.09A11.4,11.4,0,0,1,27.1,37c0-.14,0-.28,0-.42s0-.43,0-.64,0-.42.07-.62a12.29,12.29,0,0,1,.62-2.51,12.64,12.64,0,0,1,.63-1.41,9.07,9.07,0,0,1,.63-1.09A12.18,12.18,0,0,1,38.75,24.86Z"/><path class="cls-20" d="M39.3,29.63A7.42,7.42,0,0,0,31.87,37,6.86,6.86,0,0,0,32,38.49a5.68,5.68,0,0,0,.31,1.09,7.4,7.4,0,0,0,13.92,0,6.53,6.53,0,0,0,.32-1.09A6.86,6.86,0,0,0,46.71,37,7.42,7.42,0,0,0,39.3,29.63ZM44,38.49a4.72,4.72,0,0,1-.51,1.09,4.9,4.9,0,0,1-8.4,0,5.11,5.11,0,0,1-.49-1.09,4.91,4.91,0,1,1,9.4,0Z"/><path class="cls-21" d="M43.12,37a3.64,3.64,0,0,1-.29,1.45,3.69,3.69,0,0,1-.7,1.09,3.78,3.78,0,0,1-5.67,0,3.91,3.91,0,0,1-.7-1.09A3.82,3.82,0,1,1,43.12,37Z"/></g></g></svg>