<svg xmlns="http://www.w3.org/2000/svg" xmlns:xlink="http://www.w3.org/1999/xlink" viewBox="0 0 48.06 49.24"><defs><style>.cls-1{fill:url(#linear-gradient);}.cls-2{fill:url(#linear-gradient-2);}.cls-3{fill:url(#linear-gradient-3);}.cls-4{fill:url(#linear-gradient-4);}.cls-5{fill:url(#linear-gradient-5);}.cls-6{fill:url(#linear-gradient-6);}.cls-7{fill:url(#linear-gradient-7);}</style><linearGradient id="linear-gradient" x1="1.08" y1="8.26" x2="47.34" y2="48.76" gradientUnits="userSpaceOnUse"><stop offset="0" stop-color="#3e358f"/><stop offset="1" stop-color="#cc4999"/></linearGradient><linearGradient id="linear-gradient-2" x1="2.57" y1="6.55" x2="48.83" y2="47.05" xlink:href="#linear-gradient"/><linearGradient id="linear-gradient-3" x1="15.42" y1="-8.13" x2="61.68" y2="32.37" xlink:href="#linear-gradient"/><linearGradient id="linear-gradient-4" x1="15.71" y1="-8.46" x2="61.97" y2="32.04" xlink:href="#linear-gradient"/><linearGradient id="linear-gradient-5" x1="11.24" y1="-3.36" x2="57.5" y2="37.14" xlink:href="#linear-gradient"/><linearGradient id="linear-gradient-6" x1="3.87" y1="5.06" x2="50.13" y2="45.56" xlink:href="#linear-gradient"/><linearGradient id="linear-gradient-7" x1="-2.74" y1="12.61" x2="43.52" y2="53.11" xlink:href="#linear-gradient"/></defs><title>General financial consulting</title><g id="Layer_2" data-name="Layer 2"><g id="Layer_1-2" data-name="Layer 1"><path class="cls-1" d="M24.52,49.24h-4.3V46l-3.49-1.2-1.66,2.65-6-3.43.81-2.84L7.09,38.61,5,39.81,1.3,33.89l2.34-2.15L2.55,28.6H0V20.82H2.61L3.8,17.6,1.32,15.8,5.46,9.59l1.83,1.2L9.66,8.57,9.59,5.44l5.16-3.15,2,2.22,3.18-1.12V0h4.6V10.35H24C16.31,10.51,9.8,16,8.88,23.1a14.37,14.37,0,0,0,3.47,11A16.16,16.16,0,0,0,24,39.78l.48,0Zm-3.3-1h2.3V40.75a17.12,17.12,0,0,1-11.93-6A15.38,15.38,0,0,1,7.89,23c1-7.44,7.63-13.21,15.63-13.59V1h-2.6V4.09L16.45,5.67l-1.88-2.1L10.61,6l.05,3L7.4,12.05,5.74,11,2.68,15.56,5,17.24,3.31,21.82H1V27.6H3.26L4.8,32l-2.22,2,2.71,4.4,1.94-1.08L11,40.9l-.75,2.68,4.46,2.57,1.58-2.51,4.91,1.68Z"/><path class="cls-2" d="M23.69,12.12A12.92,12.92,0,1,0,36.61,25,12.94,12.94,0,0,0,23.69,12.12ZM11.77,25a11.91,11.91,0,0,1,5.87-10.26c1.62,1.7,3.93,4.16,4.56,4.91-.33.55-1.28,2-2.2,3.31-3-.14-3.05,0-3.17.35L16,25.71H11.79C11.78,25.49,11.77,25.27,11.77,25Zm2,6.55,4.06-1.78,3.27,2.72,4-3.38,2,3.83-3,1,0,3h-.42A11.88,11.88,0,0,1,13.75,31.59Zm11.36,5.28,0-2.19,3.47-1.11-3.18-6-4.34,3.64L18,28.64l-4.74,2.1a11.83,11.83,0,0,1-1.34-4h4.87L17.68,24c.49,0,1.6,0,2.56.05h.27l.16-.23c2.62-3.81,2.62-4,2.62-4.15s0-.37-4.74-5.35A11.88,11.88,0,0,1,32.3,16.81L27,16.6v3.94l1.92,3.38h2.58v2.49l-2,2,4.05,3.35A11.86,11.86,0,0,1,25.11,36.87Zm5.83-8.51,1.53-1.54v-3.9h-3L28,20.27V17.64l5.21.21A11.86,11.86,0,0,1,34,30.94Z"/><path class="cls-3" d="M36.92,2.6a2.16,2.16,0,0,0-2.1,1.66h-3L29.46,9.42H26.54v1H30.1l2.34-5.16h2.38a2.16,2.16,0,1,0,2.1-2.66Zm0,3.33a1.17,1.17,0,1,1,1.17-1.17A1.17,1.17,0,0,1,36.92,5.93Z"/><path class="cls-4" d="M44.75,10.33a2.14,2.14,0,0,0-1.64-.22,2.17,2.17,0,0,0-1.32,1,2.6,2.6,0,0,0-.23.58H38.07l-1.08,2H34.51v1h3.07l1.08-2h2.9a2.17,2.17,0,0,0,2.11,1.67,2.23,2.23,0,0,0,.56-.08,2.16,2.16,0,0,0,.52-4Zm-.07,2.45a1.18,1.18,0,0,1-.71.55,1.13,1.13,0,0,1-.88-.12,1.16,1.16,0,0,1-.43-1.59,1.22,1.22,0,0,1,.71-.55,1.54,1.54,0,0,1,.3,0,1.21,1.21,0,0,1,.58.16A1.16,1.16,0,0,1,44.68,12.78Z"/><path class="cls-5" d="M48,24.36a2.12,2.12,0,0,0-1-1.31,2.16,2.16,0,0,0-3,.79,2.6,2.6,0,0,0-.23.58H38.47v1h5.32a2.17,2.17,0,0,0,2.11,1.67,2.23,2.23,0,0,0,.56-.08A2.17,2.17,0,0,0,48,24.36ZM46.91,25.5a1.16,1.16,0,1,1-1-1.74,1.19,1.19,0,0,1,.58.15,1.17,1.17,0,0,1,.54.71,1.06,1.06,0,0,1,0,.31A1.16,1.16,0,0,1,46.91,25.5Z"/><path class="cls-6" d="M43.9,36.85a2.16,2.16,0,0,0-3,.79,2.07,2.07,0,0,0-.23.58h-.93L38.1,34H35.18v1h2.24l1.68,4.2h1.62a.13.13,0,0,0,0,.06,2.15,2.15,0,0,0,1,1.32,2.23,2.23,0,0,0,1.08.28,2.16,2.16,0,0,0,1.09-4Zm-.07,2.45a1.18,1.18,0,0,1-.71.55,1.25,1.25,0,0,1-.89-.12,1.17,1.17,0,0,1-.54-.71,1.13,1.13,0,0,1,.12-.88,1.16,1.16,0,0,1,.71-.55,1.54,1.54,0,0,1,.3,0,1.21,1.21,0,0,1,.58.16,1.18,1.18,0,0,1,.43,1.59Z"/><path class="cls-7" d="M37.52,44.23a2.15,2.15,0,0,0-3,.79,2.07,2.07,0,0,0-.23.58H32.62l-1.74-5.94H26.6v1h3.53l1.74,5.94h2.47a.13.13,0,0,0,0,.06,2.17,2.17,0,0,0,1,1.32,2.2,2.2,0,0,0,1.08.28,2.16,2.16,0,0,0,1.08-4Zm-.07,2.45a1.16,1.16,0,1,1-1-1.74,1.19,1.19,0,0,1,.58.15,1.15,1.15,0,0,1,.59,1A1.1,1.1,0,0,1,37.45,46.68Z"/></g></g></svg>