<svg xmlns="http://www.w3.org/2000/svg" xmlns:xlink="http://www.w3.org/1999/xlink" viewBox="0 0 189.31 27.66"><defs><style>.cls-1{fill:url(#linear-gradient);}.cls-2{fill:url(#linear-gradient-2);}.cls-3{fill:url(#linear-gradient-3);}.cls-4{fill:url(#linear-gradient-4);}.cls-5{fill:url(#linear-gradient-5);}.cls-6{fill:url(#linear-gradient-6);}.cls-7{fill:url(#linear-gradient-7);}.cls-8{fill:url(#linear-gradient-8);}.cls-9{fill:url(#linear-gradient-9);}.cls-10{fill:url(#linear-gradient-10);}.cls-11{fill:url(#linear-gradient-11);}</style><linearGradient id="linear-gradient" x1="166.53" y1="-3.06" x2="178.53" y2="23.1" gradientUnits="userSpaceOnUse"><stop offset="0" stop-color="#3e358f"/><stop offset="1" stop-color="#cc4999"/></linearGradient><linearGradient id="linear-gradient-2" x1="166.86" y1="-3.21" x2="178.86" y2="22.95" xlink:href="#linear-gradient"/><linearGradient id="linear-gradient-3" x1="159.92" y1="-0.03" x2="171.92" y2="26.13" xlink:href="#linear-gradient"/><linearGradient id="linear-gradient-4" x1="164.53" y1="-2.14" x2="176.53" y2="24.02" xlink:href="#linear-gradient"/><linearGradient id="linear-gradient-5" x1="169.65" y1="-4.49" x2="181.65" y2="21.67" xlink:href="#linear-gradient"/><linearGradient id="linear-gradient-6" x1="169.64" y1="-4.49" x2="181.64" y2="21.67" xlink:href="#linear-gradient"/><linearGradient id="linear-gradient-7" x1="163.69" y1="-1.76" x2="175.69" y2="24.4" xlink:href="#linear-gradient"/><linearGradient id="linear-gradient-8" x1="168.9" y1="-4.15" x2="180.9" y2="22.01" xlink:href="#linear-gradient"/><linearGradient id="linear-gradient-9" x1="159.05" y1="0.37" x2="171.05" y2="26.53" xlink:href="#linear-gradient"/><linearGradient id="linear-gradient-10" x1="167.16" y1="-3.35" x2="179.16" y2="22.81" xlink:href="#linear-gradient"/><linearGradient id="linear-gradient-11" x1="0" y1="13.83" x2="158.55" y2="13.83" xlink:href="#linear-gradient"/></defs><title>ritalogo</title><g id="Layer_2" data-name="Layer 2"><g id="Layer_1-2" data-name="Layer 1"><path class="cls-1" d="M184.89,8.28a.38.38,0,0,1-.52-.09,11.62,11.62,0,0,0-19.24,13,55.55,55.55,0,0,0,13.62-7.44.09.09,0,1,1,.11.14,55.75,55.75,0,0,1-12.94,8.38l-.7.33a10,10,0,0,1-.81-1.15A12.37,12.37,0,0,1,185,7.75.38.38,0,0,1,184.89,8.28Z"/><path class="cls-2" d="M189.31,10.14l-1.43-1.38a53.27,53.27,0,0,1-6.9,6.63,54.43,54.43,0,0,1-18.77,9.7,63.84,63.84,0,0,0,13-7.24c1.17-.85,2.28-1.71,3.32-2.56l.29-.24a63.91,63.91,0,0,0,7.61-7.54l-1.3-1.15h3.75Z"/><path class="cls-3" d="M169.43,14v4.6c-1.14.59-2.24,1.11-3.29,1.58V14Z"/><path class="cls-4" d="M173.89,11.41v4.66l-1.22.75c-.66.4-1.33.77-2,1.12h-.09V11.41Z"/><path class="cls-5" d="M178.81,8.75v3.92c-1,.77-2.1,1.56-3.3,2.35V8.75Z"/><path class="cls-6" d="M178.52,15.29l.29-.24v.24Z"/><path class="cls-7" d="M170.69,17.94c.65-.35,1.32-.72,2-1.12l1.22-.75"/><path class="cls-8" d="M178.81,12.67c-1,.77-2.1,1.56-3.3,2.35"/><path class="cls-9" d="M169.43,18.62c-1.14.59-2.24,1.11-3.29,1.58"/><path class="cls-10" d="M187.27,14.93A12.39,12.39,0,0,1,174.9,27.3a12.26,12.26,0,0,1-7.63-2.63.39.39,0,0,1-.07-.53.37.37,0,0,1,.53-.06,11.63,11.63,0,0,0,18.7-10.6A44.06,44.06,0,0,1,175,21.16a.15.15,0,0,1-.19-.07.14.14,0,0,1,.07-.18,43.33,43.33,0,0,0,11.37-8.63c.21-.22.41-.43.61-.66,0,0,0,.05,0,.07a9.22,9.22,0,0,1,.25,1.16A12,12,0,0,1,187.27,14.93Z"/><path class="cls-11" d="M9.74,17.67H5.42V27.3H0V1H9.77c3.11,0,5.51.7,7.19,2.08a7.16,7.16,0,0,1,2.53,5.87,8.06,8.06,0,0,1-1.16,4.49A8,8,0,0,1,14.8,16.3l5.69,10.75v.25H14.67ZM5.42,13.28H9.79a4.47,4.47,0,0,0,3.16-1,3.7,3.7,0,0,0,1.12-2.86A4,4,0,0,0,13,6.45,4.42,4.42,0,0,0,9.77,5.38H5.42Z"/><path class="cls-11" d="M23.23,2.69A2.59,2.59,0,0,1,24,.76,2.93,2.93,0,0,1,26.16,0a2.94,2.94,0,0,1,2.13.76,2.56,2.56,0,0,1,.8,1.93,2.54,2.54,0,0,1-.81,1.95,2.93,2.93,0,0,1-2.12.76A2.93,2.93,0,0,1,24,4.64,2.54,2.54,0,0,1,23.23,2.69ZM28.78,27.3H23.54V7.75h5.24Z"/><path class="cls-11" d="M39.33,3v4.8h3.34v3.83H39.33v9.76a2.3,2.3,0,0,0,.42,1.55,2.08,2.08,0,0,0,1.59.47,7.8,7.8,0,0,0,1.53-.13v4a10.84,10.84,0,0,1-3.16.47q-5.49,0-5.6-5.55V11.58H31.25V7.75h2.86V3Z"/><path class="cls-11" d="M56.91,27.3a5.84,5.84,0,0,1-.53-1.75,6.29,6.29,0,0,1-4.93,2.11A6.94,6.94,0,0,1,46.69,26a5.35,5.35,0,0,1-1.89-4.19A5.52,5.52,0,0,1,47.11,17q2.3-1.66,6.66-1.68h2.4V14.24a3.18,3.18,0,0,0-.7-2.17,2.72,2.72,0,0,0-2.19-.81,3.12,3.12,0,0,0-2.07.63,2.14,2.14,0,0,0-.75,1.73H45.24a5.22,5.22,0,0,1,1-3.14,6.89,6.89,0,0,1,3-2.27,10.78,10.78,0,0,1,4.3-.82,8.55,8.55,0,0,1,5.74,1.82,6.36,6.36,0,0,1,2.12,5.1v8.47A9.39,9.39,0,0,0,62.18,27v.31Zm-4.32-3.63a4.42,4.42,0,0,0,2.13-.52,3.35,3.35,0,0,0,1.45-1.38V18.41h-2q-3.93,0-4.18,2.71v.31A2.09,2.09,0,0,0,50.71,23,2.69,2.69,0,0,0,52.59,23.67Z"/><path class="cls-11" d="M96.58,14.74a15.8,15.8,0,0,1-1.37,6.81,10.41,10.41,0,0,1-3.93,4.52,11.62,11.62,0,0,1-11.7,0,10.48,10.48,0,0,1-4-4.49,15.39,15.39,0,0,1-1.43-6.71v-1.3a15.86,15.86,0,0,1,1.4-6.84,10.42,10.42,0,0,1,4-4.54,11.6,11.6,0,0,1,11.69,0,10.46,10.46,0,0,1,4,4.54,15.65,15.65,0,0,1,1.4,6.82Zm-5.49-1.19a11.07,11.07,0,0,0-1.48-6.29,5.23,5.23,0,0,0-8.44,0,10.89,10.89,0,0,0-1.5,6.22v1.28A11.26,11.26,0,0,0,81.15,21a5.19,5.19,0,0,0,8.46.09,11.2,11.2,0,0,0,1.48-6.25Z"/><path class="cls-11" d="M111.16,12.65a13.59,13.59,0,0,0-1.88-.15c-2,0-3.27.67-3.88,2V27.3h-5.22V7.75h4.93l.14,2.33a4.85,4.85,0,0,1,4.36-2.69,5.4,5.4,0,0,1,1.63.24Z"/><path class="cls-11" d="M112.21,17.34a11.56,11.56,0,0,1,1.12-5.18,8.16,8.16,0,0,1,3.23-3.52,9.3,9.3,0,0,1,4.88-1.25,8.92,8.92,0,0,1,6.46,2.42,9.7,9.7,0,0,1,2.79,6.58l0,1.33a10.24,10.24,0,0,1-2.51,7.22,9.74,9.74,0,0,1-13.49,0,10.4,10.4,0,0,1-2.52-7.37Zm5.22.37a7.34,7.34,0,0,0,1,4.27,3.76,3.76,0,0,0,6,0,8,8,0,0,0,1.07-4.66,7.22,7.22,0,0,0-1.07-4.23,3.47,3.47,0,0,0-3-1.5,3.42,3.42,0,0,0-3,1.49A8.13,8.13,0,0,0,117.43,17.71Z"/><path class="cls-11" d="M150.94,20.2l2.57-12.45h5l-5,19.55h-4.37L145.49,15l-3.71,12.3h-4.35l-5-19.55h5.05L140,20.18l3.58-12.43h3.78Z"/></g></g></svg>