<svg xmlns="http://www.w3.org/2000/svg" xmlns:xlink="http://www.w3.org/1999/xlink" viewBox="0 0 48.84 49.24"><defs><style>.cls-1{fill:url(#linear-gradient);}.cls-2{fill:url(#linear-gradient-2);}.cls-3{fill:url(#linear-gradient-3);}.cls-4{fill:url(#linear-gradient-4);}.cls-5{fill:url(#linear-gradient-5);}.cls-6{fill:url(#linear-gradient-6);}.cls-7{fill:url(#linear-gradient-7);}.cls-8{fill:url(#linear-gradient-8);}.cls-9{fill:url(#linear-gradient-9);}.cls-10{fill:url(#linear-gradient-10);}.cls-11{fill:url(#linear-gradient-11);}.cls-12{fill:url(#linear-gradient-12);}.cls-13{fill:url(#linear-gradient-13);}</style><linearGradient id="linear-gradient" x1="-0.89" y1="-0.18" x2="56.42" y2="54.23" gradientUnits="userSpaceOnUse"><stop offset="0" stop-color="#3e358f"/><stop offset="1" stop-color="#cc4999"/></linearGradient><linearGradient id="linear-gradient-2" x1="-2.37" y1="1.38" x2="54.94" y2="55.79" xlink:href="#linear-gradient"/><linearGradient id="linear-gradient-3" x1="10.38" y1="-12.05" x2="67.69" y2="42.35" xlink:href="#linear-gradient"/><linearGradient id="linear-gradient-4" x1="11.86" y1="-13.61" x2="69.17" y2="40.8" xlink:href="#linear-gradient"/><linearGradient id="linear-gradient-5" x1="13.46" y1="-15.3" x2="70.78" y2="39.11" xlink:href="#linear-gradient"/><linearGradient id="linear-gradient-6" x1="-0.02" y1="-1.09" x2="57.29" y2="53.31" xlink:href="#linear-gradient"/><linearGradient id="linear-gradient-7" x1="1.45" y1="-2.65" x2="58.77" y2="51.76" xlink:href="#linear-gradient"/><linearGradient id="linear-gradient-8" x1="0.02" y1="-1.14" x2="57.34" y2="53.27" xlink:href="#linear-gradient"/><linearGradient id="linear-gradient-9" x1="1.5" y1="-2.7" x2="58.81" y2="51.71" xlink:href="#linear-gradient"/><linearGradient id="linear-gradient-10" x1="3.02" y1="-4.3" x2="60.33" y2="50.11" xlink:href="#linear-gradient"/><linearGradient id="linear-gradient-11" x1="-4.81" y1="3.95" x2="52.5" y2="58.36" xlink:href="#linear-gradient"/><linearGradient id="linear-gradient-12" x1="-3.34" y1="2.4" x2="53.97" y2="56.81" xlink:href="#linear-gradient"/><linearGradient id="linear-gradient-13" x1="-1.82" y1="0.8" x2="55.49" y2="55.21" xlink:href="#linear-gradient"/></defs><title>StockBrokerDiversification</title><g id="Layer_2" data-name="Layer 2"><g id="Layer_1-2" data-name="Layer 1"><path class="cls-1" d="M8.83,13.12A4.07,4.07,0,1,1,12.9,9.05,4.07,4.07,0,0,1,8.83,13.12Zm0-7a2.92,2.92,0,1,0,2.91,2.91A2.92,2.92,0,0,0,8.83,6.14Z"/><path class="cls-2" d="M39.36,38.37v-2.8h6.27v-9H29.51v4.05h-5V23.54h6.05V20.39h7V13.5h7.62V4.15H26.85v4.4h-9.2V8.34A1.38,1.38,0,0,0,16.27,7h-.73a.37.37,0,0,1-.35-.23,6.26,6.26,0,0,0-.38-.93.36.36,0,0,1,.08-.4l.53-.52a1.39,1.39,0,0,0,.4-1,1.38,1.38,0,0,0-.4-1l-.69-.67a1.36,1.36,0,0,0-1.94,0l-.52.51a.38.38,0,0,1-.41.08,6,6,0,0,0-.94-.38.37.37,0,0,1-.23-.34V1.38A1.37,1.37,0,0,0,9.31,0h-1A1.38,1.38,0,0,0,7,1.38v.74a.36.36,0,0,1-.23.34,6.85,6.85,0,0,0-.94.38.36.36,0,0,1-.4-.08l-.51-.51a1.38,1.38,0,0,0-1.95,0l-.68.67a1.4,1.4,0,0,0-.42,1,1.37,1.37,0,0,0,.42,1l.5.51a.34.34,0,0,1,.08.4,6.85,6.85,0,0,0-.38.94A.34.34,0,0,1,2.11,7H1.38A1.38,1.38,0,0,0,0,8.34v1a1.38,1.38,0,0,0,1.38,1.38h.73a.34.34,0,0,1,.34.23,6.37,6.37,0,0,0,.38.94.34.34,0,0,1-.08.4l-.51.52a1.36,1.36,0,0,0,0,2l.68.69a1.43,1.43,0,0,0,2,0l.51-.52a.36.36,0,0,1,.4-.08,6.85,6.85,0,0,0,.94.38.37.37,0,0,1,.23.35v.72a1.38,1.38,0,0,0,1.38,1.38h1a1.37,1.37,0,0,0,1.38-1.38v-.72a.39.39,0,0,1,.23-.35,6,6,0,0,0,.94-.38.38.38,0,0,1,.41.08l.51.52a1.39,1.39,0,0,0,2,0l.69-.69a1.39,1.39,0,0,0,0-2l-.52-.52a.33.33,0,0,1-.08-.4,7.69,7.69,0,0,0,.38-.94.35.35,0,0,1,.35-.23h.72a1.35,1.35,0,0,0,1.35-1.13h9.23V13.5h9.67v5.89h-6V16.48H17.42v7.06h6v8.1h6v3.93h8.7v2.8H30.78v3.28l-4.19-3.14-.05,0a.51.51,0,0,0-.3-.1H6.06a5.56,5.56,0,0,0-4.21,1.51,5.33,5.33,0,0,0,0,7.89,5.56,5.56,0,0,0,3.74,1.47h20.6a.51.51,0,0,0,.3-.1l.05,0L30.78,46v2.68H48.84V38.37ZM16.65,9.31a.38.38,0,0,1-.38.37h-.72a1.36,1.36,0,0,0-1.31.94,4.42,4.42,0,0,1-.33.79A1.35,1.35,0,0,0,14.19,13l.51.51a.36.36,0,0,1,.11.26.4.4,0,0,1-.11.27L14,14.7a.37.37,0,0,1-.53,0L13,14.19a1.35,1.35,0,0,0-1.57-.27,4.9,4.9,0,0,1-.79.33,1.36,1.36,0,0,0-.94,1.3v.72a.38.38,0,0,1-.37.38h-1A.38.38,0,0,1,8,16.27v-.72A1.35,1.35,0,0,0,7,14.25a4.55,4.55,0,0,1-.79-.33,1.26,1.26,0,0,0-.6-.14,1.37,1.37,0,0,0-1,.41l-.52.51a.37.37,0,0,1-.52,0L3,14a.4.4,0,0,1-.11-.27A.36.36,0,0,1,3,13.49L3.47,13a1.36,1.36,0,0,0,.26-1.57c-.12-.26-.23-.53-.32-.79a1.36,1.36,0,0,0-1.3-.94H1.38A.38.38,0,0,1,1,9.31v-1A.38.38,0,0,1,1.38,8h.73A1.34,1.34,0,0,0,3.41,7a7.52,7.52,0,0,1,.32-.78,1.36,1.36,0,0,0-.26-1.57L3,4.16a.36.36,0,0,1-.11-.26A.41.41,0,0,1,3,3.64L3.64,3a.36.36,0,0,1,.52,0l.52.52a1.36,1.36,0,0,0,1.57.26A5.44,5.44,0,0,1,7,3.42,1.37,1.37,0,0,0,8,2.12V1.38A.38.38,0,0,1,8.34,1h1a.37.37,0,0,1,.37.37v.74a1.38,1.38,0,0,0,.94,1.3,5.94,5.94,0,0,1,.79.32A1.36,1.36,0,0,0,13,3.48L13.49,3A.38.38,0,0,1,14,3l.67.68a.36.36,0,0,1,0,.52l-.51.53a1.35,1.35,0,0,0-.28,1.57,3.8,3.8,0,0,1,.33.78,1.35,1.35,0,0,0,1.3.93h.73a.38.38,0,0,1,.38.37Zm11.21,3.18V5.16H44.14v7.33Zm-9.43,10v-5H29.51v5ZM6.18,48.22H6A4.45,4.45,0,0,1,2.59,47a4.3,4.3,0,0,1,0-6.4,4.52,4.52,0,0,1,3.14-1.25h.49Zm3.08,0H7.18V39.38H9.26Zm16.47,0H10.27V44.29H25.73Zm0-4.93H10.27V39.38H25.73Zm4.79-8.73v-7H44.63v7ZM26.74,47.72V39.88L32,43.8Zm21.09-.1h-16V45.19l1.31-1a.5.5,0,0,0,0-.8l-1.31-1v-3h16Z"/><rect class="cls-3" x="31.92" y="8.56" width="1.42" height="1.01"/><rect class="cls-4" x="34.98" y="8.56" width="1.54" height="1.01"/><rect class="cls-5" x="38.03" y="8.56" width="2.21" height="1.01"/><rect class="cls-6" x="21.71" y="19.7" width="1.42" height="1.01"/><rect class="cls-7" x="24.76" y="19.7" width="1.54" height="1.01"/><rect class="cls-8" x="33.31" y="30.63" width="1.42" height="1.01"/><rect class="cls-9" x="36.37" y="30.63" width="1.54" height="1.01"/><rect class="cls-10" x="39.57" y="30.63" width="1.54" height="1.01"/><rect class="cls-11" x="36.44" y="43.29" width="1.42" height="1.01"/><rect class="cls-12" x="39.49" y="43.29" width="1.54" height="1.01"/><rect class="cls-13" x="42.7" y="43.29" width="1.54" height="1.01"/></g></g></svg>